<svg xmlns="http://www.w3.org/2000/svg" xmlns:xlink="http://www.w3.org/1999/xlink" viewBox="0 0 1062.91 653.61"><defs><style>.cls-1,.cls-10,.cls-11,.cls-12,.cls-13,.cls-14,.cls-15,.cls-16,.cls-17,.cls-18,.cls-19,.cls-20,.cls-21,.cls-22,.cls-23,.cls-24,.cls-25,.cls-26,.cls-27,.cls-28,.cls-29,.cls-30,.cls-31,.cls-32,.cls-33,.cls-34,.cls-35,.cls-36,.cls-37,.cls-38,.cls-40,.cls-41,.cls-42,.cls-43,.cls-44,.cls-45,.cls-46,.cls-47,.cls-65,.cls-66{fill:none;}.cls-2{isolation:isolate;}.cls-3{fill:url(#Gradiente_sem_nome_7);}.cls-4{clip-path:url(#clip-path);}.cls-5{fill:url(#Gradiente_sem_nome_7-2);}.cls-6{fill:url(#Gradiente_sem_nome_7-3);}.cls-7{fill:url(#Gradiente_sem_nome_7-4);}.cls-8{fill:url(#Gradiente_sem_nome_7-5);}.cls-9{opacity:0.5;}.cls-39,.cls-67,.cls-68,.cls-9{mix-blend-mode:soft-light;}.cls-10,.cls-11,.cls-12,.cls-13,.cls-14,.cls-15,.cls-16,.cls-17,.cls-18,.cls-19,.cls-20,.cls-21,.cls-22,.cls-23,.cls-24,.cls-25,.cls-26,.cls-27,.cls-28,.cls-29,.cls-30,.cls-31,.cls-32,.cls-33,.cls-34,.cls-35,.cls-36,.cls-37,.cls-38,.cls-40,.cls-41,.cls-42,.cls-43,.cls-44,.cls-45,.cls-46,.cls-47{stroke:#80ffdb;}.cls-10,.cls-11,.cls-12,.cls-13,.cls-14,.cls-15,.cls-16,.cls-17,.cls-18,.cls-19,.cls-20,.cls-21,.cls-22,.cls-23,.cls-24,.cls-25,.cls-26,.cls-27,.cls-28,.cls-29,.cls-30,.cls-31,.cls-32,.cls-33,.cls-34,.cls-35,.cls-36,.cls-37,.cls-38,.cls-40,.cls-41,.cls-42,.cls-43,.cls-44,.cls-45,.cls-46,.cls-47,.cls-65,.cls-66{stroke-miterlimit:10;}.cls-11{stroke-width:0.97px;}.cls-12{stroke-width:0.95px;}.cls-13{stroke-width:0.92px;}.cls-14{stroke-width:0.9px;}.cls-15{stroke-width:0.87px;}.cls-16{stroke-width:0.85px;}.cls-17{stroke-width:0.82px;}.cls-18{stroke-width:0.8px;}.cls-19{stroke-width:0.77px;}.cls-20{stroke-width:0.74px;}.cls-21{stroke-width:0.72px;}.cls-22{stroke-width:0.69px;}.cls-23{stroke-width:0.67px;}.cls-24{stroke-width:0.64px;}.cls-25{stroke-width:0.62px;}.cls-26{stroke-width:0.59px;}.cls-27{stroke-width:0.56px;}.cls-28{stroke-width:0.54px;}.cls-29{stroke-width:0.51px;}.cls-30{stroke-width:0.49px;}.cls-31{stroke-width:0.46px;}.cls-32{stroke-width:0.44px;}.cls-33{stroke-width:0.41px;}.cls-34{stroke-width:0.39px;}.cls-35{stroke-width:0.36px;}.cls-36{stroke-width:0.33px;}.cls-37{stroke-width:0.31px;}.cls-38{stroke-width:0.28px;}.cls-39{opacity:0.3;}.cls-40{stroke-width:0.93px;}.cls-41{stroke-width:0.86px;}.cls-42{stroke-width:0.79px;}.cls-43{stroke-width:0.71px;}.cls-44{stroke-width:0.57px;}.cls-45{stroke-width:0.5px;}.cls-46{stroke-width:0.43px;}.cls-47{stroke-width:0.36px;}.cls-48{fill:url(#Gradiente_sem_nome_7-6);}.cls-49{fill:url(#Gradiente_sem_nome_7-7);}.cls-50{fill:url(#Gradiente_sem_nome_7-8);}.cls-51{fill:url(#Gradiente_sem_nome_7-9);}.cls-52{fill:url(#Gradiente_sem_nome_7-10);}.cls-53{fill:url(#Gradiente_sem_nome_7-11);}.cls-54{fill:url(#Gradiente_sem_nome_7-12);}.cls-55{fill:url(#Gradiente_sem_nome_7-13);}.cls-56{fill:url(#Gradiente_sem_nome_7-14);}.cls-57{fill:url(#Gradiente_sem_nome_7-15);}.cls-58{fill:url(#Gradiente_sem_nome_7-16);}.cls-59{fill:url(#Gradiente_sem_nome_7-17);}.cls-60{fill:url(#Gradiente_sem_nome_7-18);}.cls-61{fill:url(#Gradiente_sem_nome_7-19);}.cls-62{fill:url(#Gradiente_sem_nome_7-20);}.cls-63{fill:url(#Gradiente_sem_nome_7-21);}.cls-64{fill:url(#Gradiente_sem_nome_7-22);}.cls-65,.cls-66{stroke-width:1.42px;}.cls-65{stroke:url(#Gradiente_sem_nome_14);}.cls-66{stroke:url(#Gradiente_sem_nome_14-2);}.cls-67{fill:url(#Gradiente_sem_nome_22);}.cls-68{fill:url(#Gradiente_sem_nome_22-2);}</style><linearGradient id="Gradiente_sem_nome_7" x1="-35.95" y1="47.07" x2="680.05" y2="427.07" gradientUnits="userSpaceOnUse"><stop offset="0" stop-color="#0ff0b3"/><stop offset="1" stop-color="#036ed9"/></linearGradient><clipPath id="clip-path" transform="translate(86.02 60.83)"><rect class="cls-1" width="750" height="500"/></clipPath><linearGradient id="Gradiente_sem_nome_7-2" x1="-86.02" y1="225.9" x2="373.9" y2="225.9" xlink:href="#Gradiente_sem_nome_7"/><linearGradient id="Gradiente_sem_nome_7-3" x1="150.19" y1="-3.6" x2="965.8" y2="-3.6" gradientTransform="translate(-192.88 217.3) rotate(-5.68)" xlink:href="#Gradiente_sem_nome_7"/><linearGradient id="Gradiente_sem_nome_7-4" x1="-72.02" y1="393.02" x2="662.86" y2="393.02" xlink:href="#Gradiente_sem_nome_7"/><linearGradient id="Gradiente_sem_nome_7-5" x1="-28.71" y1="458.17" x2="133.41" y2="458.17" xlink:href="#Gradiente_sem_nome_7"/><linearGradient id="Gradiente_sem_nome_7-6" x1="-36.87" y1="297.98" x2="898.99" y2="297.98" xlink:href="#Gradiente_sem_nome_7"/><linearGradient id="Gradiente_sem_nome_7-7" x1="-13.93" y1="46.57" x2="548.54" y2="192.06" xlink:href="#Gradiente_sem_nome_7"/><linearGradient id="Gradiente_sem_nome_7-8" x1="179.02" y1="141.95" x2="769.99" y2="452.44" xlink:href="#Gradiente_sem_nome_7"/><linearGradient id="Gradiente_sem_nome_7-9" x1="-44.37" y1="433.21" x2="571.45" y2="433.21" xlink:href="#Gradiente_sem_nome_7"/><linearGradient id="Gradiente_sem_nome_7-10" x1="158.05" y1="-82.36" x2="1052.03" y2="-82.36" gradientTransform="translate(-192.88 217.3) rotate(-5.68)" xlink:href="#Gradiente_sem_nome_7"/><linearGradient id="Gradiente_sem_nome_7-11" x1="544.81" y1="-104.33" x2="986.15" y2="-104.33" gradientTransform="translate(-143.14 157.09) rotate(-4.15)" xlink:href="#Gradiente_sem_nome_7"/><linearGradient id="Gradiente_sem_nome_7-12" x1="-18.66" y1="297.68" x2="266.33" y2="501.67" xlink:href="#Gradiente_sem_nome_7"/><linearGradient id="Gradiente_sem_nome_7-13" x1="190.15" y1="201.14" x2="821.87" y2="201.14" xlink:href="#Gradiente_sem_nome_7"/><linearGradient id="Gradiente_sem_nome_7-14" x1="506.64" y1="-142.13" x2="1093.33" y2="-142.13" gradientTransform="translate(-231.4 274.5) rotate(-6.92)" xlink:href="#Gradiente_sem_nome_7"/><linearGradient id="Gradiente_sem_nome_7-15" x1="175.82" y1="387.02" x2="463.81" y2="657.01" xlink:href="#Gradiente_sem_nome_7"/><linearGradient id="Gradiente_sem_nome_7-16" x1="511.17" y1="-50.83" x2="819.18" y2="77.18" gradientTransform="translate(-95.23 110.04) rotate(-2.77)" xlink:href="#Gradiente_sem_nome_7"/><linearGradient id="Gradiente_sem_nome_7-17" x1="-1.65" y1="357.13" x2="189.01" y2="513.13" xlink:href="#Gradiente_sem_nome_7"/><linearGradient id="Gradiente_sem_nome_7-18" x1="185.24" y1="68.81" x2="646" y2="445.79" xlink:href="#Gradiente_sem_nome_7"/><linearGradient id="Gradiente_sem_nome_7-19" x1="455.66" y1="273.37" x2="711.66" y2="484.37" xlink:href="#Gradiente_sem_nome_7"/><linearGradient id="Gradiente_sem_nome_7-20" x1="99.93" y1="275.42" x2="330.6" y2="451.42" xlink:href="#Gradiente_sem_nome_7"/><linearGradient id="Gradiente_sem_nome_7-21" x1="186.47" y1="306.98" x2="385.6" y2="490.89" xlink:href="#Gradiente_sem_nome_7"/><linearGradient id="Gradiente_sem_nome_7-22" x1="307.05" y1="-142.67" x2="396.46" y2="-60.09" gradientTransform="translate(-192.88 217.3) rotate(-5.68)" xlink:href="#Gradiente_sem_nome_7"/><linearGradient id="Gradiente_sem_nome_14" x1="-8" y1="185.95" x2="834.68" y2="185.95" gradientUnits="userSpaceOnUse"><stop offset="0" stop-color="#80ffdb"/><stop offset="0.62" stop-color="#4ea8de"/><stop offset="0.64" stop-color="#5390d9"/><stop offset="0.99" stop-color="#80ffdb"/></linearGradient><linearGradient id="Gradiente_sem_nome_14-2" x1="-39.12" y1="430.33" x2="393.04" y2="430.33" xlink:href="#Gradiente_sem_nome_14"/><radialGradient id="Gradiente_sem_nome_22" cx="539.2" cy="-1274.59" r="69.93" gradientTransform="matrix(0, 1.5, -0.35, 0, -53.72, -651.93)" gradientUnits="userSpaceOnUse"><stop offset="0" stop-color="#fff"/><stop offset="0.01" stop-color="#fafffe" stop-opacity="0.96"/><stop offset="0.04" stop-color="#e4fff7" stop-opacity="0.78"/><stop offset="0.08" stop-color="#cefff1" stop-opacity="0.61"/><stop offset="0.13" stop-color="#bbffec" stop-opacity="0.47"/><stop offset="0.18" stop-color="#abffe7" stop-opacity="0.34"/><stop offset="0.23" stop-color="#9effe3" stop-opacity="0.23"/><stop offset="0.29" stop-color="#93ffe0" stop-opacity="0.15"/><stop offset="0.36" stop-color="#8affde" stop-opacity="0.08"/><stop offset="0.45" stop-color="#84ffdc" stop-opacity="0.03"/><stop offset="0.57" stop-color="#81ffdb" stop-opacity="0.01"/><stop offset="0.91" stop-color="#80ffdb" stop-opacity="0"/></radialGradient><radialGradient id="Gradiente_sem_nome_22-2" cx="351.57" cy="2155.71" r="69.93" gradientTransform="matrix(0, 1.5, -0.43, 0, 1231.74, -36.16)" xlink:href="#Gradiente_sem_nome_22"/></defs><g class="cls-2"><g id="BACKGROUND"><rect class="cls-3" x="86.02" y="60.83" width="750" height="500"/></g><g id="OBJECTS"><g class="cls-4"><path class="cls-5" d="M56.33,220.47c55.5,1.16,111.15,5.91,165.2,18.57s106.6,33.41,152.37,64.84C321,252,258.52,210.31,191.34,179.16c-21-9.75-42.64-18.51-65.14-24.11a238.75,238.75,0,0,0-97.3-3.83c-46.14,7.85-92.06,32.39-113.21,74.14a13.37,13.37,0,0,0-1.69,4.9c-.36,4.45,3.64,8.3,8,9.38s8.88.09,13.24-.9C-24.59,229.57,14.88,219.86,56.33,220.47Z" transform="translate(86.02 60.83)"/><path class="cls-6" d="M219.21,60.29c93.63,4.38,183.09,37.63,272.38,66.15s183.26,52.83,275.92,38.72a191.18,191.18,0,0,1,9.88,51.16c.21,4,.14,8.38-2.55,11.3-2,2.2-5.09,3-8,3.75a427.38,427.38,0,0,1-236.51-10.3C472.66,201.56,420,170,364.91,144c-64-30.21-138-37-208.77-39.49S6.4,120-47,166.51c11.58-10.11,27.6-41.92,37.62-53.36,10.28-11.76,29.49-17,43.64-22.47A455.39,455.39,0,0,1,151.39,62.29,447.8,447.8,0,0,1,219.21,60.29Z" transform="translate(86.02 60.83)"/><path class="cls-7" d="M195.5,268.87c84.1,33.24,155.64,91.13,228.28,145S574.18,519.5,662.86,537.2c-21.88,9.26-46.23,10.57-70,10.79a878.1,878.1,0,0,1-135-9.19c-24.51-3.58-49.05-8.26-72-17.49-29.12-11.69-54.88-30.34-79.51-49.77-56.89-44.87-109.92-95.16-171.71-133S-.64,275.73-72,288.22c4-.69,5.84-32.37,9.26-36.62,5.59-6.92,17-6.74,25.37-8.07a443.31,443.31,0,0,1,78.72-5.42A444.7,444.7,0,0,1,195.5,268.87Z" transform="translate(86.02 60.83)"/><path class="cls-8" d="M133.41,516.4A677.28,677.28,0,0,1,62.5,533.86c-6.07-25.35-14.62-50.5-29.32-72s-36.13-39.29-61.43-45.57c-2.46-.61,5.66-22.16,6.63-24.07,4.77-9.38,6.19-11,15.7-8.9C9,386.58,24.44,396,37.32,403.84a239.21,239.21,0,0,1,69.86,64.87A228,228,0,0,1,133.41,516.4Z" transform="translate(86.02 60.83)"/></g><g class="cls-4"><g class="cls-9"><path class="cls-10" d="M-44.37,244.41C74.43,221,154,240,245.83,284.91,344,333,424.22,422.78,517.59,479.69A504.08,504.08,0,0,0,697,546.38" transform="translate(86.02 60.83)"/><path class="cls-11" d="M-43,240.5c118.39-24.09,199.47-6.06,292,38.36,97.94,47.23,178.13,135.77,271.46,191.27,54.36,32.5,115.67,55.12,179.71,64.14" transform="translate(86.02 60.83)"/><path class="cls-12" d="M-41.74,236.59c118-24.75,200.55-7.65,293.86,36.22,97.66,46.36,178,133.45,271.15,187.75,54,31.46,115.23,54.05,180,61.59" transform="translate(86.02 60.83)"/><path class="cls-13" d="M-40.43,232.67c117.6-25.4,201.76-9.48,295.69,34.09C352.77,312,433.06,398,526.11,451c53.53,30.49,114.79,53,180.23,59" transform="translate(86.02 60.83)"/><path class="cls-14" d="M-39.11,228.76C78.08,202.7,163.75,217.61,258.4,260.71,355.67,305,436,389.76,528.94,441.43c53.1,29.51,114.36,51.9,180.5,56.49" transform="translate(86.02 60.83)"/><path class="cls-15" d="M-37.8,224.85C79,198.13,166.18,212,261.55,254.67c97,43.36,177.38,126.85,270.23,177.19,52.66,28.55,113.92,50.83,180.76,53.94" transform="translate(86.02 60.83)"/><path class="cls-16" d="M-36.49,220.94c116.4-27.39,205.09-14.47,301.18,27.68,96.77,42.43,177.17,124.66,269.93,173.67,52.21,27.59,113.49,49.77,181,51.39" transform="translate(86.02 60.83)"/><path class="cls-17" d="M-35.17,217c116-28,206.18-16.1,303,25.55,96.5,41.52,176.94,122.48,269.61,170.15,51.77,26.64,113.06,48.7,181.29,48.85" transform="translate(86.02 60.83)"/><path class="cls-18" d="M-33.86,213.11c115.6-28.7,207.29-17.75,304.84,23.41,96.25,40.61,176.71,120.3,269.31,166.64,51.32,25.67,112.62,47.62,181.55,46.29" transform="translate(86.02 60.83)"/><path class="cls-19" d="M-32.55,209.2c115.2-29.36,208.39-19.38,306.68,21.27,96,39.71,176.47,118.13,269,163.12,50.86,24.73,112.18,46.55,181.81,43.75" transform="translate(86.02 60.83)"/><path class="cls-20" d="M-31.23,205.29c114.79-30,209.47-21,308.5,19.14C373,263.23,453.5,340.39,546,384c50.4,23.79,111.74,45.48,182.07,41.2" transform="translate(86.02 60.83)"/><path class="cls-21" d="M-29.92,201.37c114.4-30.67,210.57-22.63,310.34,17,95.44,37.92,176,113.81,268.38,156.07,50,22.85,111.31,44.42,182.34,38.65" transform="translate(86.02 60.83)"/><path class="cls-22" d="M-28.61,197.46c114-31.33,211.66-24.24,312.17,14.87,95.17,37,175.73,111.66,268.08,152.56,49.48,21.91,110.87,43.34,182.6,36.1" transform="translate(86.02 60.83)"/><path class="cls-23" d="M-27.29,193.55c113.59-32,212.73-25.85,314,12.73,94.89,36.16,175.48,109.53,267.78,149,49,21,110.43,42.27,182.86,33.55" transform="translate(86.02 60.83)"/><path class="cls-24" d="M-26,189.64c113.2-32.65,213.82-27.45,315.83,10.6,94.61,35.28,175.21,107.39,267.46,145.51,48.55,20.06,110,41.2,183.13,31" transform="translate(86.02 60.83)"/><path class="cls-25" d="M-24.67,185.72c112.8-33.3,214.9-29,317.66,8.47,94.33,34.42,175,105.28,267.16,142,48.08,19.14,109.57,40.12,183.39,28.45" transform="translate(86.02 60.83)"/><path class="cls-26" d="M-23.35,181.81c112.39-34,216-30.63,319.49,6.33,94,33.57,174.67,103.17,266.85,138.48,47.6,18.23,109.13,39.06,183.65,25.9" transform="translate(86.02 60.83)"/><path class="cls-27" d="M-22,177.9C90,143.28,195,145.7,299.28,182.09c93.76,32.73,174.4,101.08,266.55,135C613,334.38,674.52,355,749.74,340.4" transform="translate(86.02 60.83)"/><path class="cls-28" d="M-20.73,174c111.6-35.28,218.12-33.78,323.16,2,93.46,31.89,174.11,99,266.23,131.44,46.65,16.43,108.26,36.92,184.18,20.81" transform="translate(86.02 60.83)"/><path class="cls-29" d="M-19.41,170.07c111.19-35.93,219.18-35.33,325-.07,93.17,31,173.83,96.93,265.93,127.92,46.16,15.53,107.82,35.84,184.44,18.25" transform="translate(86.02 60.83)"/><path class="cls-30" d="M-18.1,166.16C92.69,129.57,202.15,129.28,308.72,164c92.88,30.22,173.54,94.88,265.62,124.4C620,303,681.72,323.12,759,304.05" transform="translate(86.02 60.83)"/><path class="cls-31" d="M-16.79,162.25C93.61,125,204.53,123.82,311.86,157.9c92.59,29.4,173.25,92.84,265.32,120.88,45.19,13.77,107,33.71,185,13.16" transform="translate(86.02 60.83)"/><path class="cls-32" d="M-15.47,158.34c110-37.92,222.37-40,330.48-6.49,92.28,28.59,173,90.82,265,117.36,44.71,12.9,106.52,32.64,185.23,10.61" transform="translate(86.02 60.83)"/><path class="cls-33" d="M-14.16,154.42c109.59-38.57,223.44-41.49,332.31-8.62,92,27.78,172.66,88.81,264.7,113.85,44.23,12,106.08,31.56,185.49,8.05" transform="translate(86.02 60.83)"/><path class="cls-34" d="M-12.85,150.51c109.2-39.23,224.5-43,334.14-10.75,91.7,27,172.37,86.81,264.4,110.32,43.74,11.17,105.64,30.49,185.75,5.51" transform="translate(86.02 60.83)"/><path class="cls-35" d="M-11.53,146.6c108.79-39.89,225.55-44.52,336-12.89,91.39,26.18,172.07,84.84,264.08,106.8,43.26,10.33,105.21,29.42,186,3" transform="translate(86.02 60.83)"/><path class="cls-36" d="M-10.22,142.69a547.26,547.26,0,0,1,337.8-15C418.63,153.22,499.35,210.55,591.36,231c42.77,9.48,104.77,28.35,186.28.4" transform="translate(86.02 60.83)"/><path class="cls-37" d="M-8.91,138.77a552.27,552.27,0,0,1,339.64-17.16c90.77,24.7,171.47,81,263.47,99.77,42.28,8.64,104.33,27.28,186.54-2.14" transform="translate(86.02 60.83)"/><path class="cls-38" d="M-7.59,134.86C100,93,221.12,85.88,333.87,115.57c90.5,23.82,171.18,79,263.17,96.24,41.8,7.82,103.89,26.21,186.8-4.69" transform="translate(86.02 60.83)"/></g><g class="cls-39"><path class="cls-10" d="M-7.7,115.12C49.19,75.22,160,28.54,350,80.11c74.42,20.2,146.57,47.71,220.9,68.23s156.28,28.72,226.68-2.75" transform="translate(86.02 60.83)"/><path class="cls-40" d="M-6.16,108C51,69.29,162.07,23.77,352.06,72.68c74.41,19.15,146.52,45.37,220.84,64.83s156.32,27,226.93-3.65" transform="translate(86.02 60.83)"/><path class="cls-41" d="M-4.62,101C52.75,63.36,164.18,19,354.14,65.24c74.4,18.11,146.47,43,220.78,61.45S731.28,152,802.11,122.13" transform="translate(86.02 60.83)"/><path class="cls-42" d="M-3.09,93.86c57.62-36.42,169.37-79.63,359.31-36,74.39,17.07,146.41,40.7,220.72,58.06s156.4,23.59,227.44-5.47" transform="translate(86.02 60.83)"/><path class="cls-43" d="M-1.55,86.77C56.3,51.51,168.38,9.47,358.3,50.38,432.68,66.4,504.66,88.74,579,105s156.44,21.89,227.7-6.38" transform="translate(86.02 60.83)"/><path class="cls-24" d="M0,79.69c58.09-34.11,170.5-75,360.39-36.75,74.37,15,146.31,36,220.59,51.28s156.48,20.18,228-7.29" transform="translate(86.02 60.83)"/><path class="cls-44" d="M1.53,72.6C59.86,39.65,172.59-.07,362.46,35.51,436.83,49.45,508.72,69.21,583,83.39S739.51,101.87,811.2,75.2" transform="translate(86.02 60.83)"/><path class="cls-45" d="M3.07,65.52C61.64,33.73,174.7-4.84,364.54,28.08,438.9,41,510.75,59.44,585,72.57s156.57,16.77,228.48-9.1" transform="translate(86.02 60.83)"/><path class="cls-46" d="M4.61,58.43c58.8-30.63,172.19-68,362-37.78C441,32.49,512.77,49.67,587,61.75s156.61,15.06,228.73-10" transform="translate(86.02 60.83)"/><path class="cls-47" d="M6.15,51.35c59-29.48,172.75-65.72,362.55-38.14C443,24,514.8,39.9,589,50.92S745.69,64.28,818,40" transform="translate(86.02 60.83)"/><path class="cls-38" d="M7.69,44.26C67,16,181-19.14,370.78,5.78c74.33,9.76,146.05,24.35,220.28,34.32S747.75,51.75,820.3,28.28" transform="translate(86.02 60.83)"/></g></g><g class="cls-4"><path class="cls-48" d="M592,240.76c-58.69-16.94-111.63-49.15-167.84-73.07C307.8,118.2,176.33,105,52.5,130.42c-21.1,4.33-42.51,10-60.09,22.42s-30.81,33-29.13,54.46c27.63-19.52,63.67-21.52,97.5-21.23,57.54.48,115.61,5.69,170.33,23.46,131,42.54,229.23,151.53,352.45,213.09a530.36,530.36,0,0,0,177.68,52.49c42.56,4.76,85.87,4.3,127.94-3.69,3.73-.71,8-1.95,9.39-5.49.83-2.16.27-4.58-.3-6.82-21-81.29-52.27-155.46-63.91-239C760.66,257.33,671.25,263.64,592,240.76Z" transform="translate(86.02 60.83)"/><path class="cls-49" d="M414.33,153.16C474,176.91,530.44,209.45,592.54,225.8c78.72,20.73,166.17,14.22,239.9-20.46q-2-9.83-3.64-19.8C756,224.47,666.76,232.88,587,211.87c-59.07-15.56-112.75-46.51-169.51-69.1C300,96,168.24,85.93,45,114.25c-15.43,3.54-31,7.82-45,14.94,7.52-2.33,15.19-4.26,22.82-6C152.35,93.41,290.85,104,414.33,153.16Z" transform="translate(86.02 60.83)"/><path class="cls-50" d="M671.44,445.94c-78-21.33-146.84-67-212.46-114.19S328.63,234.5,254.44,202.36s-160.67-44.84-235.8-15c133.07-16.59,265.26,45.38,368.58,130.87,61.85,51.18,116.86,111.43,185.45,153.16C675.38,533.92,805.53,549.34,920,512.57c9.72-3.12,19.52-6.71,27.54-13,12.47-9.86,35.05-49.24,28-66-5.55-13.25-20.35.31-29.86,5.63-49.15,27.5-113.19,24.06-168.2,22C741.74,459.85,706,455.4,671.44,445.94Z" transform="translate(86.02 60.83)"/><path class="cls-51" d="M537.71,541.71c-22.59,2.3-45-4.88-66.12-13.33a524.67,524.67,0,0,1-117-65.41c-42.87-31.79-80.69-70-123.65-101.67-78-57.52-174.51-92.68-271.24-87.09l-4,55.58c54.84-.08,108.64,18,156.31,45.08s89.75,63,129.47,100.84c46.3,44.09,93,92.95,154.76,109.57,23.71,6.38,48.49,7.6,73,7.5,18-.07,36.5-.92,53.14-7.84,19.73-8.2,35.08-24.17,49.11-40.28a100.8,100.8,0,0,1-58.66,0C521.5,542.8,529,543.53,537.71,541.71Z" transform="translate(86.02 60.83)"/><path class="cls-52" d="M-15.55,102.45C104.38,30.83,256,30,390.55,67.7,458.65,86.79,524.16,115,593.3,129.91s144.9,15.18,206.64-19.34c10.74-6,21.25-13.32,27.71-23.79,6.09-9.86,8.07-21.65,9.49-33.14a446.64,446.64,0,0,0-.73-114.47c-34.64,46.74-86.58,79.12-142.35,95.67s-115.24,18-172.94,10.53c-50.38-6.53-99.67-19.7-149.75-28.26A828.78,828.78,0,0,0,211.43,5.49c-48.51,1.19-97.49,6.78-142.87,24S-18.63,76.18-44,117.56c10.06-18.81-9-.78,12.25.5Z" transform="translate(86.02 60.83)"/><path class="cls-53" d="M683.47,33.52C598.44,53.1,507.76,48.41,426,18c-12.27-4.57-24.58-9.84-34.32-18.59l10.86-12.28c91.17,38.13,198.67,35.06,287.52-8.2,12.39-6,24.76-13.08,33.28-23.92,3.65-4.65,6.91-10.22,12.47-12.23,2.73-1,5.71-1,8.62-1l85.64.85c-2,0-10.3,11.53-12,13.27-4.31,4.46-8.73,8.9-13.43,13C797.67-25.11,765.42,14.64,683.47,33.52Z" transform="translate(86.02 60.83)"/><path class="cls-54" d="M223.55,427c37.65,35.12,70.9,77.81,118.5,97.48-33.28,3.17-69,5.86-98.07-10.57-17.6-9.93-30.84-25.87-44.09-41.13-29.8-34.31-61.95-67.15-99.93-92.1S17.55,339-27.89,339.39c2.82,0-3.2-29.25-1.6-30.95C-26.16,304.89,61,308,166.56,382,186.41,395.92,205.83,410.5,223.55,427Z" transform="translate(86.02 60.83)"/><path class="cls-55" d="M819.2,228.72c-73.71,37.2-163.11,43.51-242.41,20.63C518.11,232.41,465.16,200.2,409,176.28A630.24,630.24,0,0,0,190.15,127a654.73,654.73,0,0,1,213.17,54c58.07,25.81,112.61,60.2,173.37,78.8,79.52,24.34,169.38,20.34,245.18-14Q820.4,237.31,819.2,228.72Z" transform="translate(86.02 60.83)"/><path class="cls-56" d="M749.31,16.71S703.55,60.07,580.08,60.84s-205.68-40.29-332-40.42c0,0,64.93,5.09,265.86,50.45s321.3-81.78,321.3-81.78Z" transform="translate(86.02 60.83)"/></g><g class="cls-4"><path class="cls-57" d="M199.66,364.28C242,397.56,286.5,428.16,327.9,462.6c34.62,28.8,71,58.39,115.1,69.2-27.62,1.67-55-7.37-79-20.87s-45-31.32-66.1-48.83q-31-25.78-62.56-51c-36.86-29.49-74.59-58.63-117.42-79s-91.6-31.68-138.5-23.45c.2,0,6.43-10.19,9.5-11.49C-5.68,294.84,97.26,283.85,199.66,364.28Z" transform="translate(86.02 60.83)"/><path class="cls-58" d="M777.28,123.86s-102.09,42-303.67-27.37c0,0,190.42,86.9,293.56,45.88l10.26-15.52Z" transform="translate(86.02 60.83)"/><path class="cls-59" d="M59.28,376.76a453,453,0,0,1,102,79.11c17.79,18.43,34.2,38.53,55,53.43l-30.76-.89c-2.38-8.69-8.15-16-13.95-22.89a512.19,512.19,0,0,0-91-84.59C57.51,384.2,32.59,369.22,5,362.15c-18.29-4.69-37-5.46-55.77-6.66,16.27-1.79,33.56-5.51,49.86-2.62C20.51,356.68,40.47,366.08,59.28,376.76Z" transform="translate(86.02 60.83)"/><path class="cls-60" d="M-20,170.56s107-52.77,232-30c180.49,32.87,348,195,558,137v88s-159,4-321-95S171.26,121.53-20,170.56Z" transform="translate(86.02 60.83)"/><path class="cls-61" d="M758,467.57s-116.34,3.48-252-97.82c0,0,106.71,94.71,252,108.42Z" transform="translate(86.02 60.83)"/><path class="cls-62" d="M191.53,284.84C279.73,323.78,350.89,392.06,427.22,451c36.47,28.14,75.66,54.88,120.53,65.29-20,6.88-42.22,2-61.95-5.73-60.72-23.75-107.87-71.91-157.5-114.17-52.67-44.85-110.54-84.51-174.82-110.07-66-26.29-132.8-33-202.79-23.85C57.35,228.62,159.16,270.54,191.53,284.84Z" transform="translate(86.02 60.83)"/><path class="cls-63" d="M506,513.77s-87.18-55.95-228.46-157.94-236.69-95-236.69-95,95.41,0,236.1,106.3S443.3,505.49,493.45,516.48Z" transform="translate(86.02 60.83)"/><path class="cls-64" d="M-23.06,109.7s90.61-98.44,331.29-63c0,0-198.84-42.82-326.18,49.56Z" transform="translate(86.02 60.83)"/></g><g class="cls-4"><path class="cls-65" d="M834.36,220.13c-73.7,37.2-163.11,43.51-242.4,20.63-58.69-16.94-111.63-49.15-167.84-73.07C307.8,118.2,176.33,105,52.5,130.42c-21.1,4.33-42.51,10-60.09,22.42" transform="translate(86.02 60.83)"/><path class="cls-66" d="M-39,315.61A302.15,302.15,0,0,1,156.05,364c72.19,47.85,121.81,125.65,197.54,167.67,12.32,6.84,25.41,12.71,39.34,14.86" transform="translate(86.02 60.83)"/></g><g class="cls-4"><ellipse class="cls-67" cx="394.93" cy="156.16" rx="24.62" ry="104.79" transform="translate(207.55 541.96) rotate(-71.5)"/><ellipse class="cls-68" cx="296.63" cy="490.61" rx="30.33" ry="104.79" transform="translate(-188.07 497) rotate(-53.39)"/></g></g></g></svg>